<svg id="Layer_3" enable-background="new 0 0 64 64" height="512" viewBox="0 0 64 64" width="512" xmlns="http://www.w3.org/2000/svg"><path d="m59.94 26.96c1.272-1.268 2.06-3.022 2.06-4.96 0-3.866-3.134-7-7-7-.36 0-.71.036-1.055.088.032-.359.055-.721.055-1.088 0-6.627-5.373-12-12-12-4.176 0-7.851 2.136-10 5.372-2.149-3.236-5.824-5.372-10-5.372-6.627 0-12 5.373-12 12 0 .367.023.729.055 1.088-.345-.052-.695-.088-1.055-.088-3.866 0-7 3.134-7 7s3.134 7 7 7c3.108 0 5.739-2.027 6.653-4.829 1.842 1.152 4.013 1.829 6.347 1.829.49 0 .971-.035 1.445-.092.212.262.435.514.67.756" fill="#a1cdfb"/><path d="m57 26c-.359 0-.707.041-1.045.113-.445-4.554-4.284-8.113-8.955-8.113s-8.51 3.559-8.955 8.113c-.338-.072-.686-.113-1.045-.113-2.761 0-5 2.239-5 5s2.239 5 5 5c1.717 0 3.231-.867 4.131-2.186 1.576 1.359 3.624 2.186 5.869 2.186s4.293-.827 5.869-2.186c.9 1.319 2.414 2.186 4.131 2.186 2.761 0 5-2.239 5-5s-2.239-5-5-5z" fill="#ebf7fe"/><g fill="#c7e2fc"><path d="m42 30c-.359 0-.707.041-1.045.113-.445-4.554-4.284-8.113-8.955-8.113s-8.51 3.559-8.955 8.113c-.338-.072-.686-.113-1.045-.113-2.761 0-5 2.239-5 5s2.239 5 5 5c1.717 0 3.231-.867 4.131-2.186 1.576 1.359 3.624 2.186 5.869 2.186s4.293-.827 5.869-2.186c.9 1.319 2.414 2.186 4.131 2.186 2.761 0 5-2.239 5-5s-2.239-5-5-5z"/><circle cx="7" cy="57" r="5"/><circle cx="28" cy="57" r="5"/><circle cx="48" cy="57" r="5"/><circle cx="18" cy="48" r="3"/><circle cx="38" cy="48" r="3"/></g><path d="m9 30c-4.411 0-8-3.589-8-8s3.589-8 8-8c0-7.168 5.832-13 13-13 3.896 0 7.541 1.734 10 4.698 2.459-2.964 6.104-4.698 10-4.698 7.168 0 13 5.832 13 13 4.411 0 8 3.589 8 8 0 2.143-.836 4.156-2.354 5.668l-1.412-1.417c1.139-1.134 1.766-2.644 1.766-4.251 0-3.309-2.691-6-6-6-.272 0-.56.024-.905.077-.302.046-.61-.05-.835-.26-.224-.21-.338-.512-.311-.818.03-.33.051-.662.051-.999 0-6.065-4.935-11-11-11-3.691 0-7.119 1.841-9.167 4.925-.371.559-1.295.559-1.666 0-2.048-3.084-5.476-4.925-9.167-4.925-6.065 0-11 4.935-11 11 0 .337.021.669.051.999.027.306-.087.607-.311.818-.225.21-.53.305-.835.26-.345-.053-.633-.077-.905-.077-3.309 0-6 2.691-6 6s2.691 6 6 6c2.603 0 4.895-1.664 5.701-4.14.096-.292.32-.525.61-.63.289-.104.61-.072.871.092 1.755 1.098 3.766 1.678 5.818 1.678.415 0 .849-.028 1.327-.085.339-.04.68.097.896.364.193.239.396.468.61.688l-1.436 1.393c-.128-.132-.253-.267-.374-.404-.354.029-.692.044-1.023.044-2.037 0-4.039-.482-5.855-1.404-1.341 2.676-4.082 4.404-7.145 4.404z"/><path d="m42 41c-1.626 0-3.165-.659-4.284-1.803-1.672 1.169-3.667 1.803-5.716 1.803s-4.044-.634-5.716-1.803c-1.119 1.144-2.658 1.803-4.284 1.803-3.309 0-6-2.691-6-6 0-3.375 2.762-6.122 6.2-5.997.928-4.628 4.976-8.003 9.8-8.003s8.872 3.375 9.8 8.003c3.412-.128 6.2 2.622 6.2 5.997 0 3.309-2.691 6-6 6zm-4.131-4.187c.043 0 .087.003.13.009.282.037.535.192.696.428.748 1.096 1.984 1.75 3.305 1.75 2.206 0 4-1.794 4-4 0-2.477-2.251-4.458-4.836-3.909-.28.06-.569-.003-.799-.171s-.378-.426-.405-.71c-.402-4.11-3.824-7.21-7.96-7.21s-7.558 3.1-7.96 7.21c-.027.284-.175.542-.405.71-.229.168-.519.232-.799.171-2.584-.55-4.836 1.432-4.836 3.909 0 2.206 1.794 4 4 4 1.321 0 2.557-.654 3.305-1.75.161-.235.414-.391.696-.428s.567.048.783.234c1.453 1.254 3.306 1.944 5.216 1.944s3.763-.69 5.216-1.943c.182-.159.415-.244.653-.244z"/><path d="m57 37c-1.626 0-3.165-.659-4.284-1.803-1.672 1.169-3.667 1.803-5.716 1.803v-2c1.91 0 3.763-.69 5.216-1.943.216-.187.5-.271.783-.235.282.037.535.193.696.428.748 1.096 1.984 1.75 3.305 1.75 2.206 0 4-1.794 4-4 0-2.477-2.252-4.46-4.836-3.909-.28.059-.568-.002-.799-.171-.23-.168-.378-.426-.405-.71-.402-4.11-3.824-7.21-7.96-7.21-3.525 0-6.682 2.36-7.675 5.739l-1.918-.563c1.241-4.225 5.186-7.176 9.593-7.176 4.824 0 8.872 3.375 9.8 8.003 3.4-.124 6.2 2.622 6.2 5.997 0 3.309-2.691 6-6 6z"/><path d="m7 63c-3.309 0-6-2.691-6-6s2.691-6 6-6 6 2.691 6 6-2.691 6-6 6zm0-10c-2.206 0-4 1.794-4 4s1.794 4 4 4 4-1.794 4-4-1.794-4-4-4z"/><path d="m28 63c-3.309 0-6-2.691-6-6s2.691-6 6-6 6 2.691 6 6-2.691 6-6 6zm0-10c-2.206 0-4 1.794-4 4s1.794 4 4 4 4-1.794 4-4-1.794-4-4-4z"/><path d="m48 63c-3.309 0-6-2.691-6-6s2.691-6 6-6 6 2.691 6 6-2.691 6-6 6zm0-10c-2.206 0-4 1.794-4 4s1.794 4 4 4 4-1.794 4-4-1.794-4-4-4z"/><path d="m18 52c-2.206 0-4-1.794-4-4s1.794-4 4-4 4 1.794 4 4-1.794 4-4 4zm0-6c-1.103 0-2 .897-2 2s.897 2 2 2 2-.897 2-2-.897-2-2-2z"/><path d="m38 52c-2.206 0-4-1.794-4-4s1.794-4 4-4 4 1.794 4 4-1.794 4-4 4zm0-6c-1.103 0-2 .897-2 2s.897 2 2 2 2-.897 2-2-.897-2-2-2z"/></svg>