<svg id="Layer_3" enable-background="new 0 0 64 64" height="512" viewBox="0 0 64 64" width="512" xmlns="http://www.w3.org/2000/svg"><path d="m63 52c-2.761 0-5 2.239-5 5s2.239 5 5 5c-8.284 0-15-6.716-15-15s6.716-15 15-15c-2.761 0-5 2.239-5 5s2.239 5 5 5c-2.761 0-5 2.239-5 5s2.239 5 5 5z" fill="#2b74ca"/><path d="m56.846 33.331c-5.212 2.35-8.846 7.58-8.846 13.669 0 2.22.495 4.32 1.36 6.216 4.567-3.48 7.64-9.877 7.64-17.216 0-.907-.063-1.794-.154-2.669z" fill="#3d98f7"/><path d="m18 14c2.209 0 4-1.791 4-4s-1.791-4-4-4c-.75 0-1.443.219-2.043.578-.217-2.561-2.34-4.578-4.957-4.578-2.761 0-5 2.239-5 5 0 .43.071.841.173 1.239-.36-.154-.756-.239-1.173-.239-1.657 0-3 1.343-3 3s1.343 3 3 3z" fill="#c7e2fc"/><path d="m58 14c2.209 0 4-1.791 4-4s-1.791-4-4-4c-.75 0-1.443.219-2.043.578-.217-2.561-2.34-4.578-4.957-4.578-2.761 0-5 2.239-5 5 0 .43.071.841.173 1.239-.36-.154-.756-.239-1.173-.239-1.657 0-3 1.343-3 3s1.343 3 3 3z" fill="#c7e2fc"/><path d="m18 15h-13c-2.206 0-4-1.794-4-4s1.794-4 4-4c0-3.309 2.691-6 6-6 2.673 0 4.931 1.724 5.697 4.18.427-.119.865-.18 1.303-.18 2.757 0 5 2.243 5 5s-2.243 5-5 5zm-13-6c-1.103 0-2 .897-2 2s.897 2 2 2h13c1.654 0 3-1.346 3-3s-1.346-3-3-3c-.531 0-1.045.147-1.529.436-.296.179-.662.189-.97.032-.307-.157-.511-.462-.541-.805-.176-2.088-1.879-3.663-3.96-3.663-2.206 0-4 1.794-4 4 0 .297.045.612.142.991.094.368-.028.759-.317 1.007-.288.248-.692.31-1.043.162-.248-.106-.511-.16-.782-.16z"/><path d="m58 15h-13c-2.206 0-4-1.794-4-4s1.794-4 4-4c0-3.309 2.691-6 6-6 2.673 0 4.931 1.724 5.697 4.18.427-.119.865-.18 1.303-.18 2.757 0 5 2.243 5 5s-2.243 5-5 5zm-13-6c-1.103 0-2 .897-2 2s.897 2 2 2h13c1.654 0 3-1.346 3-3s-1.346-3-3-3c-.531 0-1.045.147-1.529.436-.295.179-.662.189-.97.032-.307-.157-.511-.462-.541-.805-.176-2.088-1.879-3.663-3.96-3.663-2.206 0-4 1.794-4 4 0 .297.045.612.142.991.094.369-.028.759-.317 1.007-.288.248-.693.31-1.043.162-.248-.106-.511-.16-.782-.16z"/><path d="m63 63c-8.822 0-16-7.178-16-16s7.178-16 16-16v2c-7.72 0-14 6.28-14 14s6.28 14 14 14z"/><path d="m63 63c-3.309 0-6-2.691-6-6s2.691-6 6-6v2c-2.206 0-4 1.794-4 4s1.794 4 4 4z"/><path d="m63 53c-3.309 0-6-2.691-6-6s2.691-6 6-6v2c-2.206 0-4 1.794-4 4s1.794 4 4 4z"/><path d="m63 43c-3.309 0-6-2.691-6-6s2.691-6 6-6v2c-2.206 0-4 1.794-4 4s1.794 4 4 4z"/><path d="m50.293 56.707-9-9c-.391-.391-.391-1.023 0-1.414l9-9 1.414 1.414-8.293 8.293 8.293 8.293z"/><path d="m30 56c-2.757 0-5-2.243-5-5s2.243-5 5-5h16v2h-16c-1.654 0-3 1.346-3 3s1.346 3 3 3z"/><path d="m19 27h-18v-2h18c1.654 0 3-1.346 3-3s-1.346-3-3-3-3 1.346-3 3h-2c0-2.757 2.243-5 5-5s5 2.243 5 5-2.243 5-5 5z"/><path d="m19 63h-18v-2h18c1.654 0 3-1.346 3-3s-1.346-3-3-3-3 1.346-3 3h-2c0-2.757 2.243-5 5-5s5 2.243 5 5-2.243 5-5 5z"/><path d="m33 31h-32v-2h32c2.757 0 5-2.243 5-5s-2.243-5-5-5-5 2.243-5 5h-2c0-3.86 3.14-7 7-7s7 3.14 7 7-3.14 7-7 7z"/><path d="m19 43c-2.757 0-5-2.243-5-5h2c0 1.654 1.346 3 3 3s3-1.346 3-3-1.346-3-3-3h-18v-2h18c2.757 0 5 2.243 5 5s-2.243 5-5 5z"/></svg>